<svg xmlns="http://www.w3.org/2000/svg" viewBox="0 0 337.15 90">
    <defs>
        <style>.cls-1{fill:#39b54a;}.cls-2{fill:#026361;}.cls-3{fill:#c3d846;}.cls-4{fill:#131718;}</style>
    </defs>
    <g id="Layer_2" data-name="Layer 2">
        <g id="Laag_2" data-name="Laag 2">
            <path class="cls-1"
                d="M35.43,0,9.93,48.11s51.26-.07,53.41,0c2.8.09,21-5.67,21.17-24C84.63,9.14,73.92,1.44,66.7,0Z" />
            <path class="cls-2"
                d="M7.27,51.64H64.54l17.39,38H14.06S.91,85.32.06,74.73,7.27,51.64,7.27,51.64Z" />
            <polygon class="cls-3" points="35.43 0.04 9.93 48.15 63.34 48.15 35.43 0.04" />
            <path class="cls-4"
                d="M96.39,61.83V41.13H107a15.5,15.5,0,0,1,4.54.51,4.83,4.83,0,0,1,2.52,1.89,6.36,6.36,0,0,1,.23,6.32,5.77,5.77,0,0,1-2,2,7.64,7.64,0,0,1-2.25.81,6.45,6.45,0,0,1,1.67.77,6.7,6.7,0,0,1,1,1.09,8.48,8.48,0,0,1,.9,1.28l3.09,6h-7.22L106.1,55.5a4.77,4.77,0,0,0-1.16-1.59,2.68,2.68,0,0,0-1.57-.48h-.56v8.4Zm6.42-12.31h2.7a10.47,10.47,0,0,0,1.69-.28,1.77,1.77,0,0,0,1-.65,2.1,2.1,0,0,0-.24-2.74,3.79,3.79,0,0,0-2.38-.54h-2.81Z" />
            <path class="cls-4"
                d="M134.33,55.76H122.81a3.81,3.81,0,0,0,.75,2.06,2.72,2.72,0,0,0,2.17,1,3.25,3.25,0,0,0,1.61-.42,3.92,3.92,0,0,0,1-.95L134,58a8.08,8.08,0,0,1-3.14,3.23,11.28,11.28,0,0,1-5.26,1,10.78,10.78,0,0,1-4.69-.84,6.88,6.88,0,0,1-2.83-2.67,8,8,0,0,1-1.12-4.3,7.56,7.56,0,0,1,2.25-5.69,8.57,8.57,0,0,1,6.22-2.17,11.06,11.06,0,0,1,5.08,1,6.61,6.61,0,0,1,2.84,2.82,10.35,10.35,0,0,1,1,4.82ZM128.49,53a3.89,3.89,0,0,0-.9-2.38,2.81,2.81,0,0,0-4.1.37,3.9,3.9,0,0,0-.66,2Z" />
            <path class="cls-4"
                d="M143.9,41.13v5.71h3.16V51H143.9v5.31a2.92,2.92,0,0,0,.18,1.27,1.06,1.06,0,0,0,1,.48,6.15,6.15,0,0,0,1.78-.37l.42,4a18.69,18.69,0,0,1-4,.47,7,7,0,0,1-3.16-.55,3.36,3.36,0,0,1-1.5-1.67,9.71,9.71,0,0,1-.49-3.63V51H136v-4.2h2.12V44.08Z" />
            <path class="cls-4"
                d="M155,51.69l-5.49-.58a6,6,0,0,1,.89-2.26,5.07,5.07,0,0,1,1.69-1.44,7.14,7.14,0,0,1,2.17-.67,17.54,17.54,0,0,1,3-.24,23.15,23.15,0,0,1,4.15.29,5.35,5.35,0,0,1,2.61,1.2,4.28,4.28,0,0,1,1.15,1.8,6.37,6.37,0,0,1,.43,2.23v6.62a8.11,8.11,0,0,0,.13,1.66,7.57,7.57,0,0,0,.59,1.53H161a6,6,0,0,1-.43-.88,8.38,8.38,0,0,1-.2-1,7.31,7.31,0,0,1-2.24,1.55,9.24,9.24,0,0,1-3.54.63,6,6,0,0,1-4.08-1.25,4,4,0,0,1-1.39-3.06,4,4,0,0,1,1-2.81,6.83,6.83,0,0,1,3.69-1.64c2.16-.43,3.56-.73,4.2-.91a19.35,19.35,0,0,0,2-.68,2,2,0,0,0-.44-1.48,2.2,2.2,0,0,0-1.54-.43,3.86,3.86,0,0,0-2.11.46A2.39,2.39,0,0,0,155,51.69Zm5,3c-.79.28-1.61.53-2.47.75a5.71,5.71,0,0,0-2.22.92,1.47,1.47,0,0,0,0,2.17,2,2,0,0,0,1.39.42,3.55,3.55,0,0,0,1.78-.46,2.8,2.8,0,0,0,1.17-1.14,3.79,3.79,0,0,0,.35-1.74Z" />
            <path class="cls-4" d="M169.29,41.13H175V45h-5.75Zm0,5.71H175v15h-5.75Z" />
            <path class="cls-4" d="M178.9,41.13h5.76v20.7H178.9Z" />
            <path class="cls-4"
                d="M197.36,41.13h12a6.48,6.48,0,0,1,4.59,1.49,4.79,4.79,0,0,1,1.61,3.67,4.58,4.58,0,0,1-1.15,3.14,5.05,5.05,0,0,1-2.23,1.39,5.73,5.73,0,0,1,3.28,1.84,5.06,5.06,0,0,1,1.06,3.28,5.61,5.61,0,0,1-.75,2.89,5.5,5.5,0,0,1-2.05,2,6.75,6.75,0,0,1-2.43.67,28.24,28.24,0,0,1-2.86.29h-11Zm6.45,8.12h2.78a3.14,3.14,0,0,0,2.08-.52,1.87,1.87,0,0,0,.59-1.48,1.78,1.78,0,0,0-.59-1.42,3.2,3.2,0,0,0-2-.5h-2.82Zm0,8.13h3.26a3.59,3.59,0,0,0,2.33-.58,2,2,0,0,0,.68-1.58,1.83,1.83,0,0,0-.67-1.47,3.7,3.7,0,0,0-2.35-.56h-3.25Z" />
            <path class="cls-4"
                d="M235.24,61.83h-5.36V59.4a7.86,7.86,0,0,1-2.42,2.13,6.46,6.46,0,0,1-3,.64,4.91,4.91,0,0,1-3.72-1.42,6.17,6.17,0,0,1-1.35-4.37V46.84h5.78v8.24a3,3,0,0,0,.52,2,1.85,1.85,0,0,0,1.47.6,2.1,2.1,0,0,0,1.68-.79,4.57,4.57,0,0,0,.66-2.84V46.84h5.74Z" />
            <path class="cls-4"
                d="M237.71,57.66l5.71-.53a2.76,2.76,0,0,0,1,1.45,2.92,2.92,0,0,0,1.69.44,2.85,2.85,0,0,0,1.79-.5,1.1,1.1,0,0,0,.5-.91,1.05,1.05,0,0,0-.65-1,11.64,11.64,0,0,0-2.47-.59,25.5,25.5,0,0,1-4.16-1,4.27,4.27,0,0,1-2-1.5,3.9,3.9,0,0,1-.8-2.41,4,4,0,0,1,.86-2.55,5.13,5.13,0,0,1,2.37-1.6,12.41,12.41,0,0,1,4-.53,13.74,13.74,0,0,1,4,.41,5.08,5.08,0,0,1,2.13,1.27,6.5,6.5,0,0,1,1.42,2.33l-5.45.53A1.86,1.86,0,0,0,247,50a2.9,2.9,0,0,0-1.64-.45,2.33,2.33,0,0,0-1.42.35,1,1,0,0,0-.44.84.91.91,0,0,0,.56.83,9.08,9.08,0,0,0,2.46.51,16.34,16.34,0,0,1,4.26.9,4.62,4.62,0,0,1,2.14,1.65,4.07,4.07,0,0,1,.74,2.35,4.66,4.66,0,0,1-.78,2.53,5.33,5.33,0,0,1-2.47,1.95,12,12,0,0,1-4.6.73q-4.11,0-5.85-1.18A5.28,5.28,0,0,1,237.71,57.66Z" />
            <path class="cls-4" d="M256.6,41.13h5.75V45H256.6Zm0,5.71h5.75v15H256.6Z" />
            <path class="cls-4"
                d="M266,46.84h5.35v2.44a8,8,0,0,1,2.42-2.14,6.4,6.4,0,0,1,3-.64,4.88,4.88,0,0,1,3.73,1.42,6.14,6.14,0,0,1,1.35,4.38v9.53h-5.78V53.58a3,3,0,0,0-.52-2A1.88,1.88,0,0,0,274.1,51a2.08,2.08,0,0,0-1.69.79,4.62,4.62,0,0,0-.65,2.84v7.2H266Z" />
            <path class="cls-4"
                d="M301.94,55.76H290.42a3.66,3.66,0,0,0,.75,2.06,2.71,2.71,0,0,0,2.17,1,3.28,3.28,0,0,0,1.61-.42,3.75,3.75,0,0,0,1-.95l5.66.53a8.06,8.06,0,0,1-3.13,3.23,11.28,11.28,0,0,1-5.26,1,10.78,10.78,0,0,1-4.69-.84,6.88,6.88,0,0,1-2.83-2.67,8,8,0,0,1-1.12-4.3,7.56,7.56,0,0,1,2.25-5.69,8.57,8.57,0,0,1,6.22-2.17,11.06,11.06,0,0,1,5.08,1A6.53,6.53,0,0,1,301,50.29a10.35,10.35,0,0,1,1,4.82ZM296.1,53a3.89,3.89,0,0,0-.9-2.38,2.81,2.81,0,0,0-4.1.37,4,4,0,0,0-.67,2Z" />
            <path class="cls-4"
                d="M303.56,57.66l5.7-.53a2.88,2.88,0,0,0,1,1.45A3,3,0,0,0,312,59a2.85,2.85,0,0,0,1.79-.5,1.09,1.09,0,0,0,.49-.91,1,1,0,0,0-.65-1,11.46,11.46,0,0,0-2.47-.59,25.31,25.31,0,0,1-4.15-1,4.35,4.35,0,0,1-2-1.5,4.14,4.14,0,0,1,.07-5,5,5,0,0,1,2.37-1.6,12.41,12.41,0,0,1,4.05-.53,13.74,13.74,0,0,1,4,.41,5.08,5.08,0,0,1,2.13,1.27A6.65,6.65,0,0,1,319,50.51l-5.45.53a1.91,1.91,0,0,0-.7-1.06,2.92,2.92,0,0,0-1.64-.45,2.31,2.31,0,0,0-1.42.35,1,1,0,0,0-.45.84.9.9,0,0,0,.57.83,9,9,0,0,0,2.46.51,16.34,16.34,0,0,1,4.26.9,4.67,4.67,0,0,1,2.14,1.65A4.07,4.07,0,0,1,319.5,57a4.59,4.59,0,0,1-.79,2.53,5.28,5.28,0,0,1-2.47,1.95,11.89,11.89,0,0,1-4.59.73q-4.11,0-5.85-1.18A5.28,5.28,0,0,1,303.56,57.66Z" />
            <path class="cls-4"
                d="M321.22,57.66l5.7-.53a2.88,2.88,0,0,0,1,1.45,2.94,2.94,0,0,0,1.69.44,2.9,2.9,0,0,0,1.8-.5,1.09,1.09,0,0,0,.49-.91,1.05,1.05,0,0,0-.65-1,11.46,11.46,0,0,0-2.47-.59,25.78,25.78,0,0,1-4.16-1,4.32,4.32,0,0,1-2-1.5,4.1,4.1,0,0,1,.07-5,5,5,0,0,1,2.37-1.6,12.33,12.33,0,0,1,4.05-.53,13.74,13.74,0,0,1,4,.41,5.08,5.08,0,0,1,2.13,1.27,6.65,6.65,0,0,1,1.42,2.33L331.2,51a1.88,1.88,0,0,0-.71-1.06,2.86,2.86,0,0,0-1.63-.45,2.31,2.31,0,0,0-1.42.35,1,1,0,0,0-.45.84.9.9,0,0,0,.57.83,8.88,8.88,0,0,0,2.45.51,16.44,16.44,0,0,1,4.27.9,4.59,4.59,0,0,1,2.13,1.65,4,4,0,0,1,.74,2.35,4.66,4.66,0,0,1-.78,2.53,5.28,5.28,0,0,1-2.47,1.95,11.89,11.89,0,0,1-4.59.73q-4.11,0-5.85-1.18A5.24,5.24,0,0,1,321.22,57.66Z" />
            <path class="cls-4"
                d="M148.69,82.8l6.08-.38a4.58,4.58,0,0,0,.81,2.26,3.36,3.36,0,0,0,2.82,1.25,3.11,3.11,0,0,0,2.11-.64,1.93,1.93,0,0,0,.74-1.49,1.89,1.89,0,0,0-.71-1.44,8.27,8.27,0,0,0-3.27-1.2,13.91,13.91,0,0,1-6-2.51,5.07,5.07,0,0,1-1.81-4,5.42,5.42,0,0,1,.93-3,6.17,6.17,0,0,1,2.78-2.23,13,13,0,0,1,5.09-.81,10.37,10.37,0,0,1,6.05,1.48,6.36,6.36,0,0,1,2.47,4.69l-6,.35a3.24,3.24,0,0,0-1-2,3.28,3.28,0,0,0-2.13-.64,2.55,2.55,0,0,0-1.68.48,1.46,1.46,0,0,0-.56,1.15,1.16,1.16,0,0,0,.46.89,5.38,5.38,0,0,0,2.15.76,26.48,26.48,0,0,1,6,1.83,6.34,6.34,0,0,1,2.64,2.29,5.8,5.8,0,0,1,.82,3.06,6.58,6.58,0,0,1-1.1,3.67,6.87,6.87,0,0,1-3.08,2.55,12.38,12.38,0,0,1-5,.87Q153,90,151,88A8,8,0,0,1,148.69,82.8Z" />
            <path class="cls-4"
                d="M186.94,83.58H175.42a3.73,3.73,0,0,0,.75,2.06,2.72,2.72,0,0,0,2.17,1,3.28,3.28,0,0,0,1.61-.42,3.92,3.92,0,0,0,1-1l5.66.53A8.15,8.15,0,0,1,183.48,89a11.28,11.28,0,0,1-5.26,1,10.78,10.78,0,0,1-4.69-.84,6.88,6.88,0,0,1-2.83-2.67,8,8,0,0,1-1.12-4.3,7.56,7.56,0,0,1,2.25-5.69,8.57,8.57,0,0,1,6.22-2.17,11.06,11.06,0,0,1,5.08,1A6.61,6.61,0,0,1,186,78.11a10.35,10.35,0,0,1,1,4.82Zm-5.84-2.76a3.89,3.89,0,0,0-.9-2.38,2.81,2.81,0,0,0-4.1.37,3.9,3.9,0,0,0-.66,2Z" />
            <path class="cls-4"
                d="M189.63,74.66H195v2.45a5.79,5.79,0,0,1,1.61-2.19,3.38,3.38,0,0,1,2-.6,6.06,6.06,0,0,1,2.78.79l-1.78,4.09a4.59,4.59,0,0,0-1.61-.42,2,2,0,0,0-1.75.93c-.6.88-.89,2.51-.89,4.91v5h-5.78Z" />
            <path class="cls-4" d="M202.4,74.66h6l2.91,9.5,3-9.5h5.8l-6.37,15h-5.1Z" />
            <path class="cls-4" d="M222,69h5.74v3.91H222Zm0,5.71h5.74v15H222Z" />
            <path class="cls-4"
                d="M242.55,83.77l5.47.63a7.76,7.76,0,0,1-1.49,2.95,6.72,6.72,0,0,1-2.63,1.94,10.33,10.33,0,0,1-4.07.7,14.76,14.76,0,0,1-4-.45,6.86,6.86,0,0,1-2.74-1.44,7.24,7.24,0,0,1-1.79-2.33,8.25,8.25,0,0,1-.65-3.55,8.42,8.42,0,0,1,.79-3.85,7.14,7.14,0,0,1,1.58-2A7.28,7.28,0,0,1,235.11,75a11.47,11.47,0,0,1,4.31-.69,9.91,9.91,0,0,1,5.6,1.31,7,7,0,0,1,2.7,3.84l-5.41.72a2.51,2.51,0,0,0-.92-1.45,3,3,0,0,0-1.8-.48,2.91,2.91,0,0,0-2.31,1,4.61,4.61,0,0,0-.88,3.09,4,4,0,0,0,.87,2.8,2.9,2.9,0,0,0,2.23,1,3,3,0,0,0,1.9-.58A3.32,3.32,0,0,0,242.55,83.77Z" />
            <path class="cls-4"
                d="M267.3,83.58H255.78a3.66,3.66,0,0,0,.75,2.06,2.71,2.71,0,0,0,2.17,1,3.31,3.31,0,0,0,1.61-.42,3.91,3.91,0,0,0,1-1l5.66.53A8.06,8.06,0,0,1,263.84,89a11.3,11.3,0,0,1-5.27,1,10.76,10.76,0,0,1-4.68-.84,6.88,6.88,0,0,1-2.83-2.67,8,8,0,0,1-1.13-4.3,7.57,7.57,0,0,1,2.26-5.69,8.56,8.56,0,0,1,6.21-2.17,11,11,0,0,1,5.08,1,6.56,6.56,0,0,1,2.84,2.82,10.35,10.35,0,0,1,1,4.82Zm-5.85-2.76a3.83,3.83,0,0,0-.89-2.38,2.63,2.63,0,0,0-1.92-.72,2.57,2.57,0,0,0-2.18,1.09,4,4,0,0,0-.67,2Z" />
            <path class="cls-4"
                d="M268.92,85.48l5.7-.53a2.88,2.88,0,0,0,1,1.45,2.94,2.94,0,0,0,1.69.44,2.88,2.88,0,0,0,1.8-.5,1.09,1.09,0,0,0,.49-.91,1.05,1.05,0,0,0-.65-1,11.46,11.46,0,0,0-2.47-.59,25.31,25.31,0,0,1-4.15-1,4.3,4.3,0,0,1-2-1.5,4.14,4.14,0,0,1,.07-5,5,5,0,0,1,2.37-1.6,12.37,12.37,0,0,1,4-.53,13.74,13.74,0,0,1,4,.41A5.08,5.08,0,0,1,282.93,76a6.65,6.65,0,0,1,1.42,2.33l-5.45.53a1.88,1.88,0,0,0-.71-1.06,2.86,2.86,0,0,0-1.63-.45,2.31,2.31,0,0,0-1.42.35,1,1,0,0,0-.45.84.9.9,0,0,0,.57.83,8.88,8.88,0,0,0,2.45.51,16.44,16.44,0,0,1,4.27.9,4.67,4.67,0,0,1,2.14,1.65,4.07,4.07,0,0,1,.74,2.35,4.59,4.59,0,0,1-.79,2.53,5.28,5.28,0,0,1-2.47,2A11.89,11.89,0,0,1,277,90q-4.11,0-5.85-1.18A5.28,5.28,0,0,1,268.92,85.48Z" />
        </g>
    </g>
</svg>